<svg width="77" height="77" viewBox="0 0 77 77" fill="none" xmlns="http://www.w3.org/2000/svg">
<path d="M51.4251 7.337C51.2722 8.29286 51.1957 9.24872 51.1957 10.2046C51.1957 18.8073 58.1543 25.7621 66.7188 25.7621C67.6747 25.7621 68.5923 25.6512 69.5482 25.4983V56.3495C69.5482 69.3148 61.9013 76.9999 48.9016 76.9999H20.6503C7.64686 76.9999 0 69.3148 0 56.3495V28.06C0 15.0603 7.64686 7.337 20.6503 7.337H51.4251ZM52.1936 30.5834C51.1575 30.4687 50.129 30.9276 49.5134 31.7687L40.2645 43.736L29.6698 35.401C29.0198 34.9039 28.2551 34.7089 27.4904 34.7892C26.7296 34.9039 26.0414 35.3207 25.5787 35.9324L14.2652 50.6564L14.032 51.0006C13.382 52.2202 13.6879 53.7878 14.8349 54.6328C15.3702 54.9769 15.9437 55.2063 16.5937 55.2063C17.4769 55.2446 18.3142 54.7819 18.8495 54.0593L28.4463 41.7058L39.3431 49.8918L39.6872 50.1173C40.9107 50.7673 42.4401 50.4653 43.3194 49.3144L54.3691 35.0569L54.2162 35.1333C54.828 34.2922 54.9427 33.2216 54.5221 32.2658C54.1053 31.3099 53.1839 30.6599 52.1936 30.5834ZM67.2545 0.530151C72.3396 0.530151 76.4689 4.65945 76.4689 9.74461C76.4689 14.8298 72.3396 18.9591 67.2545 18.9591C62.1693 18.9591 58.04 14.8298 58.04 9.74461C58.04 4.65945 62.1693 0.530151 67.2545 0.530151Z" fill="black"/>
</svg>
