<svg width="77" height="77" viewBox="0 0 77 77" fill="none" xmlns="http://www.w3.org/2000/svg">
<path d="M56.0859 0.531494C69.0894 0.531494 76.4303 7.90689 76.4686 20.9104V56.6212C76.4686 69.6208 69.0894 77.0001 56.0859 77.0001H20.3789C7.37539 77.0001 0 69.6208 0 56.6212V20.9104C0 7.90689 7.37539 0.531494 20.3789 0.531494H56.0859ZM40.146 16.3223C39.0716 15.6723 37.7717 15.6723 36.7431 16.3223C35.707 16.9684 35.1373 18.1575 35.2482 19.3428V58.3035C35.4432 59.9476 36.8158 61.1711 38.4216 61.1711C40.0695 61.1711 41.4421 59.9476 41.5951 58.3035V19.3428C41.748 18.1575 41.1783 16.9684 40.146 16.3223ZM22.2906 28.8631C21.2583 28.2131 19.9545 28.2131 18.926 28.8631C17.8898 29.5131 17.3201 30.6945 17.4348 31.8836V58.3035C17.5839 59.9476 18.9604 61.1711 20.6045 61.1711C22.2524 61.1711 23.625 59.9476 23.7779 58.3035V31.8836C23.8964 30.6945 23.3191 29.5131 22.2906 28.8631ZM57.6917 42.7421C56.6632 42.0922 55.3632 42.0922 54.2927 42.7421C53.2565 43.3921 52.6868 44.5353 52.8398 45.7627V58.3035C52.9927 59.9476 54.3653 61.1711 56.0132 61.1711C57.6191 61.1711 58.9917 59.9476 59.1867 58.3035V45.7627C59.2976 44.5353 58.7279 43.3921 57.6917 42.7421Z" fill="black"/>
</svg>
