<svg width="50" height="60" viewBox="0 0 50 60" fill="none" xmlns="http://www.w3.org/2000/svg">
<g id="Learn More icon">
<g id="Iconly/Bold/Play">
<g id="Play">
<path id="Vector" d="M30 10C41.0232 10 50 18.9725 50 30.0116C50 41.0275 41.0232 50 30 50C18.9768 50 10 41.0275 10 30.0116C10 18.9725 18.9768 10 30 10ZM27.722 22.0598C27.2973 22.0598 26.8919 22.1563 26.5058 22.3493C26.0232 22.6194 25.6371 23.0439 25.4247 23.5456C25.2896 23.8929 25.0772 24.9349 25.0772 24.9542C24.8649 26.0926 24.749 27.945 24.749 29.9904C24.749 31.9411 24.8649 33.7144 25.0386 34.8722C25.0579 34.8915 25.2703 36.1843 25.5019 36.6281C25.9266 37.4385 26.7568 37.9402 27.6448 37.9402H27.722C28.3012 37.9209 29.5174 37.4192 29.5174 37.3999C31.5637 36.5509 35.5985 33.9074 37.2201 32.1515L37.3359 32.0357C37.5483 31.8234 37.8185 31.4954 37.8764 31.4182C38.1853 31.013 38.3398 30.5113 38.3398 30.0116C38.3398 29.4501 38.166 28.9291 37.8378 28.5046C37.7606 28.4274 37.471 28.0994 37.2008 27.8292C35.6178 26.1312 31.4865 23.3526 29.3243 22.5036C28.9961 22.3705 28.166 22.0791 27.722 22.0598Z" fill="#5F6064"/>
</g>
</g>
<path id="Subtract" fill-rule="evenodd" clip-rule="evenodd" d="M30 0C13.4315 0 0 13.4315 0 30C0 46.5685 13.4315 60 30 60V56C15.6406 56 4 44.3594 4 30C4 15.6406 15.6406 4 30 4V0Z" fill="#FF6600"/>
</g>
</svg>
