<svg width="15" height="14" viewBox="0 0 15 14" fill="none" xmlns="http://www.w3.org/2000/svg">
<path id="Vector" d="M11.2759 8.3725C11.0924 8.55029 11.0081 8.80742 11.0499 9.05958L11.6796 12.5446C11.7327 12.84 11.6081 13.1389 11.3609 13.3096C11.1186 13.4867 10.7963 13.5079 10.5321 13.3663L7.39491 11.73C7.28583 11.6719 7.1647 11.6408 7.04075 11.6372H6.84879C6.7822 11.6471 6.71704 11.6684 6.65754 11.701L3.51962 13.345C3.3645 13.4229 3.18883 13.4505 3.0167 13.4229C2.59737 13.3436 2.31758 12.9441 2.38629 12.5226L3.0167 9.03763C3.0585 8.78333 2.9742 8.52479 2.79075 8.34417L0.232954 5.865C0.019037 5.65746 -0.055338 5.34579 0.042412 5.06458C0.137329 4.78408 0.379579 4.57938 0.67212 4.53333L4.19254 4.02262C4.46029 3.995 4.69545 3.83208 4.81587 3.59125L6.36712 0.410833C6.40395 0.34 6.45141 0.274833 6.50879 0.219583L6.57254 0.17C6.60583 0.133167 6.64408 0.102708 6.68658 0.0779167L6.76379 0.0495833L6.8842 0H7.18241C7.44875 0.027625 7.6832 0.187 7.80575 0.425L9.37754 3.59125C9.49087 3.82288 9.71116 3.98367 9.96546 4.02262L13.4859 4.53333C13.7834 4.57583 14.032 4.78125 14.1305 5.06458C14.2232 5.34863 14.1432 5.66029 13.925 5.865L11.2759 8.3725Z" fill="#FEBB43"/>
</svg>
