<svg width="77" height="58" viewBox="0 0 77 58" fill="none" xmlns="http://www.w3.org/2000/svg">
<path d="M37.8714 0.333008C47.1319 0.333008 53.5974 6.71445 53.5974 15.8596V42.1578C53.5974 51.303 47.1319 57.6844 37.8714 57.6844H15.7259C6.46548 57.6844 0 51.303 0 42.1578V15.8596C0 6.71445 6.46548 0.333008 15.7259 0.333008H37.8714ZM68.661 9.42889C70.3395 8.57492 72.3086 8.6642 73.9107 9.67343C75.5127 10.6788 76.4686 12.4255 76.4686 14.3353V43.6845C76.4686 45.5981 75.5127 47.341 73.9107 48.3463C73.0351 48.8937 72.0563 49.1731 71.0698 49.1731C70.2478 49.1731 69.4257 48.979 68.6572 48.587L62.9947 45.7301C60.8994 44.6665 59.5994 42.5316 59.5994 40.1599V17.856C59.5994 15.4804 60.8994 13.3455 62.9947 12.2897L68.661 9.42889Z" fill="black"/>
</svg>
