<svg width="206" height="242" viewBox="0 0 206 242" fill="none" xmlns="http://www.w3.org/2000/svg">
<g id="Frame" clip-path="url(#clip0_13_44)">
<path id="Vector" d="M124.38 74.464C123.321 73.4169 122.099 72.4969 121.244 71.3071C113.336 60.2259 103.2 51.5526 92.3859 43.655C82.7487 36.6122 72.3591 31.0748 61.0291 27.6854C56.6197 26.3688 52.1024 25.4869 47.2123 24.2973C51.8888 20.3107 57.3798 17.3617 59.5672 11.1098C55.1639 14.6712 51.0475 18.683 46.2819 21.6667C41.5074 24.6565 36.0813 26.6336 30.48 29.272C39.1115 33.4047 48.7515 35.7155 53.6305 45.391C54.388 40.2031 51.5171 37.4842 37.3269 29.28C39.8034 27.5709 42.0504 26.1597 45.244 26.5656C63.186 28.8265 79.0711 36.4047 93.6761 47.3354C102.209 53.7223 109.968 61.0339 116.954 69.0777C124.055 77.249 130.482 85.9165 135.907 95.4062C143.305 108.322 149.365 121.712 153.437 135.933C158.251 152.762 160.275 169.804 157.762 186.905C154.973 205.967 147.53 222.791 134.431 236.621C133.631 237.468 132.905 238.402 132.203 239.333C132.061 239.528 132.146 239.898 132.11 240.379C133.431 241.327 134.239 240.281 134.976 239.534C142.245 232.18 147.932 223.673 152.248 214.184C161.113 194.725 162.665 174.075 159.46 152.654C156.902 135.569 150.915 119.527 143.402 103.953C142.082 101.22 140.109 98.8029 138.541 96.1874C137.867 95.066 137.482 93.771 136.963 92.569C132.777 86.5329 128.582 80.5031 124.38 74.464Z" fill="black" fill-opacity="0.6"/>
</g>
<defs>
<clipPath id="clip0_13_44">
<rect width="88.41" height="232.459" fill="white" transform="matrix(0.820876 -0.571106 -0.571106 -0.820876 132.759 241.311)"/>
</clipPath>
</defs>
</svg>
