<svg width="265" height="229" viewBox="0 0 265 229" fill="none" xmlns="http://www.w3.org/2000/svg">
<g id="Frame" clip-path="url(#clip0_13_25)">
<g id="Group">
<path id="Vector" d="M174.604 66.1746C176.204 64.3726 178.236 63.1433 180.409 62.1392C185.856 59.622 191.537 57.7721 197.366 56.3636C204.045 54.7531 210.788 53.5258 217.64 52.932C218.702 52.839 219.779 52.9448 220.851 52.9535C220.873 53.1225 220.903 53.2935 220.925 53.4625C220.356 53.5964 219.795 53.8078 219.216 53.8595C209.595 54.7291 200.152 56.5176 190.896 59.3024C186.765 60.5457 182.771 62.1556 178.973 64.2039C178.016 64.7189 177.2 65.4785 176.285 66.0762C175.856 66.355 175.36 66.5284 174.896 66.746C174.795 66.5599 174.699 66.371 174.604 66.1746Z" fill="black" fill-opacity="0.75"/>
<path id="Vector_2" d="M213.034 59.2415C217.457 56.5813 222.599 55.6448 227.525 53.6918C224.981 51.2527 221.765 50.0609 219.528 47.3381C221.116 47.5567 226.929 51.2696 230.272 54.1256C227.249 55.1053 224.382 55.9953 221.539 56.9593C218.766 57.9022 216.023 58.921 213.266 59.9042C213.187 59.6802 213.111 59.4608 213.034 59.2415Z" fill="black" fill-opacity="0.75"/>
<g id="Group_2">
<path id="Vector_3" d="M153.62 150.987C154.864 151.272 154.894 152.183 154.775 153.193C154.71 153.744 154.504 154.397 154.701 154.847C155.659 156.985 154.79 158.51 153.223 159.859C152.948 160.1 152.659 160.317 152.411 160.517C152.364 160.719 152.288 160.87 152.318 160.997C153.165 164.767 150.521 167.673 147.283 168.539C145.647 168.976 144.024 169.273 142.322 168.976C139.757 168.531 137.715 167.514 137.234 164.606C135.212 164.243 132.983 164.457 131.781 162.341C131.119 161.174 130.633 159.962 131.254 158.637C128.668 156.223 128.611 155.754 130.399 151.974C129.236 149.296 128.108 146.604 126.893 143.956C126.518 143.144 126.226 142.29 124.988 142.114C117.971 141.129 113.165 137.029 110.008 130.911C106.781 124.657 105.778 117.998 107.56 111.155C109.173 104.955 113.113 100.359 118.4 96.8174C124.366 92.821 130.866 91.6837 137.841 92.9442C142.816 93.8478 147.451 95.6383 151.162 99.1658C157.508 105.193 160.144 112.615 159.085 121.331C158.406 126.891 156.051 131.644 152.259 135.734C151.722 136.314 151.316 137.012 150.839 137.664C151.633 139.646 152.46 141.514 153.13 143.435C153.953 145.783 153.711 146.343 151.417 147.323C150.15 147.866 148.799 148.232 147.46 148.585C142.736 149.832 138.02 151.105 133.263 152.209C131.842 152.54 131.173 153.522 130.536 154.504C129.737 155.75 130.865 157.3 132.501 157.309C133.219 157.315 133.97 157.182 134.658 156.961C140.143 155.217 145.75 153.793 150.884 151.093C151.851 150.584 152.826 150.034 153.663 149.344C154.27 148.843 154.655 148.075 155.101 147.479C155.688 148.3 155.696 148.91 154.904 149.8C154.528 150.224 154.093 150.601 153.689 150.997C147.263 154.187 140.589 156.717 133.582 158.303C132.574 158.534 132.251 158.996 132.529 160.172C133.331 160.148 134.135 160.248 134.874 160.073C139.131 159.07 143.413 158.122 147.603 156.894C149.385 156.374 151.07 155.338 152.631 154.293C153.703 153.586 154.605 152.475 153.62 150.987ZM144.471 148.165C146.582 147.586 148.714 147.095 150.782 146.397C152.461 145.829 152.631 145.373 152.069 143.803C151.607 142.502 151.133 141.182 150.472 139.971C149.414 138.041 149.885 136.478 151.326 135.031C151.583 134.769 151.84 134.508 152.074 134.229C158.175 126.968 159.796 118.738 156.836 109.808C154.138 101.681 148.224 96.7284 140.023 94.5826C130.321 92.0425 121.757 94.2334 114.644 101.382C111.286 104.757 108.848 108.693 108.208 113.572C107.239 120.931 108.701 127.657 113.125 133.69C116.125 137.779 120.028 140.367 125.107 140.961C126.379 141.111 127.093 141.696 127.569 142.782C128.362 144.589 129.159 146.393 129.991 148.183C130.508 149.295 131.091 150.37 131.668 151.511C133.802 150.894 135.745 150.337 137.642 149.787C137.665 149.535 137.731 149.378 137.688 149.259C136.325 145.561 135.063 141.823 133.548 138.188C132.144 134.822 129.893 132.063 126.719 130.119C125.602 129.434 124.508 128.68 123.506 127.835C120.46 125.265 120.76 122.633 124.256 120.747C124.447 120.643 124.651 120.55 124.855 120.47C126.794 119.689 128.923 119.551 130.852 118.657C131.556 118.332 132.586 118.597 133.437 118.745C133.988 118.841 134.497 119.212 134.871 119.392C137.357 116.181 138.431 116.075 142.2 118.409C142.609 118.173 143.042 117.911 143.484 117.667C145.528 116.557 146.864 116.971 147.995 119.027C149.143 121.124 148.438 123.043 147.293 124.796C146.261 126.376 145.105 127.928 143.779 129.258C141.552 131.497 141.265 134.084 141.909 136.949C142.753 140.639 143.598 144.329 144.471 148.165ZM127.594 120.814C126.652 121.094 125.869 121.227 125.178 121.55C122.008 123.035 121.756 124.881 124.454 127.13C125.571 128.066 126.809 128.863 128.037 129.653C130.556 131.279 132.529 133.414 133.824 136.091C134.93 138.388 135.845 140.776 136.762 143.157C137.536 145.182 138.188 147.257 138.947 149.473C140.547 149.094 141.932 148.766 143.41 148.414C143.281 147.692 143.203 147.122 143.07 146.565C142.332 143.516 141.53 140.486 140.838 137.429C140.095 134.145 140.212 131.023 142.916 128.514C143.446 128.02 143.934 127.463 144.351 126.871C145.27 125.562 146.184 124.244 147.009 122.871C147.611 121.871 147.515 120.76 147.098 119.689C146.64 118.505 145.767 117.981 144.759 118.267C143.392 118.649 142.861 119.445 143.069 120.793C143.115 121.08 143.217 121.366 143.232 121.652C143.288 122.705 142.788 123.338 141.948 123.296C141.084 123.256 140.608 122.615 140.742 121.609C140.791 121.248 140.884 120.887 141.007 120.547C141.338 119.621 140.938 119.025 140.206 118.507C138.581 117.356 137.214 117.844 136.408 119.903C136.86 120.469 137.338 121.015 137.758 121.601C138.252 122.294 138.595 123.137 137.895 123.793C137.417 124.237 136.496 124.694 136.02 124.511C135.414 124.277 134.869 123.463 134.641 122.786C134.406 122.075 134.579 121.222 134.577 120.295C133.184 119.958 131.898 119.176 130.515 120.125C131.09 121.122 131.693 121.96 132.077 122.886C132.549 124.019 132.116 125.04 131.273 125.872C130.499 126.639 129.069 126.9 128.226 126.471C127.131 125.911 126.987 124.89 127.065 123.842C127.133 122.981 127.357 122.13 127.594 120.814ZM153.902 155.083C147.46 159.21 140.016 159.995 132.747 161.702C133.852 163.366 135.479 163.424 137.039 163.182C140.489 162.639 143.927 161.977 147.346 161.239C148.684 160.95 149.987 160.404 151.23 159.818C153.463 158.755 154.229 157.353 153.902 155.083ZM138.425 164.42C138.585 166.197 139.679 167.07 141.272 167.569C143.78 168.36 146.191 167.952 148.496 166.948C150.636 166.014 151.779 163.453 151.322 161.434C147.035 162.428 142.741 163.421 138.425 164.42ZM130.369 122.047C130.241 121.977 129.725 121.484 129.201 121.479C128.931 121.478 128.587 122.317 128.396 122.822C128.244 123.211 128.152 123.703 128.258 124.094C128.388 124.59 128.644 125.295 129.012 125.421C129.434 125.566 130.171 125.31 130.535 124.974C131.329 124.24 131.285 123.318 130.369 122.047ZM136.079 123.668C137.33 122.381 137.315 122.321 135.634 121.453C135.783 122.189 135.896 122.764 136.079 123.668Z" fill="black" fill-opacity="0.75"/>
<path id="Vector_4" d="M91.8378 158.061C89.1806 161.27 86.7138 164.569 85.168 168.454C83.6434 172.288 82.8318 176.282 82.5381 180.391C82.242 184.538 82.2395 188.673 82.9077 192.873C85.2045 188.605 86.1568 183.671 89.5004 179.978C87.2015 186.034 84.4409 191.9 82.688 198.457C81.8142 195.292 79.0236 193.967 77.2505 191.755C76.6298 190.984 75.9723 190.247 75.512 189.308C77.9123 190.294 79.2363 192.565 81.572 194.177C81.5567 193.314 81.581 192.704 81.523 192.104C80.9415 185.741 81.0266 179.413 82.5005 173.155C83.7477 167.863 86.0868 163.125 89.7469 159.067C90.4664 158.282 90.4535 158.271 91.8378 158.061Z" fill="black" fill-opacity="0.75"/>
<path id="Vector_5" d="M223.027 137.911C219.209 138.522 215.723 139.08 212.026 139.671C212.862 138.078 214.378 138.282 215.588 137.954C216.904 137.595 218.257 137.385 220.079 137.01C216.298 135.85 212.995 134.734 209.638 133.83C205.692 132.765 201.725 131.738 197.711 130.957C194.928 130.418 192.066 130.12 189.231 130.088C187.487 130.066 185.737 130.751 183.879 131.14C183.604 130.489 184.234 130.201 184.672 129.948C186.672 128.818 188.907 128.701 191.075 128.936C194.553 129.311 198.073 129.694 201.448 130.574C207.804 132.23 214.073 134.243 220.38 136.096C220.491 136.126 220.641 136.027 221.036 135.918C220.086 133.349 218.294 131.223 217.382 128.676C220.397 131.031 221.761 134.371 223.027 137.911Z" fill="black" fill-opacity="0.75"/>
<path id="Vector_6" d="M153.005 34.3367C155.398 30.8225 157.787 27.323 160.271 23.6743C161.585 25.3623 161.882 27.5615 162.797 29.4608C163.725 31.3837 164.499 33.3766 165.141 35.4335C163.432 33.7109 162.457 31.5767 161.393 28.8978C157.601 39.887 154.475 50.5176 154.513 61.861C153.241 61.9179 153.382 61.0649 153.413 60.5204C153.559 57.8954 153.691 55.2664 154.007 52.6629C154.939 44.9993 157.27 37.6826 159.684 30.3924C159.913 29.7021 160.281 29.057 160.589 28.396C160.975 27.5649 160.888 26.8497 160.065 26.2396C157.844 29.0086 156.393 32.3616 153.531 34.5972C153.475 34.6419 153.283 34.483 153.005 34.3367Z" fill="black" fill-opacity="0.75"/>
<path id="Vector_7" d="M97.2819 96.6783C96.2084 97.0786 95.6855 96.3142 95.031 95.9519C90.6238 93.5223 86.2801 90.9746 81.7901 88.7058C79.0795 87.3353 76.1444 86.4017 72.9782 85.1437C73.3111 87.1218 74.7739 88.3409 74.47 90.4545C73.0461 89.1942 72.8226 87.5794 71.91 86.4442C70.9818 85.2928 70.1314 84.0588 69.0637 83.057C67.9703 82.0323 66.657 81.235 65.3408 80.27C71.6824 80.5854 77.8825 80.8947 84.1291 81.2084C82.69 82.1271 82.515 82.1717 77.0651 82.0754C74.6629 82.0322 72.2675 81.8596 69.7586 81.74C70.3902 83.0187 71.2898 83.6535 72.5797 84.019C80.5848 86.3031 87.8993 90.0962 94.91 94.5038C95.7803 95.0551 96.84 95.4783 97.2819 96.6783Z" fill="black" fill-opacity="0.75"/>
<path id="Vector_8" d="M32.6807 159.329C34.2624 158.19 35.7823 156.955 37.4312 155.921C47.368 149.72 57.9606 144.796 68.6247 140.007C68.7645 139.945 69.0159 140.12 69.2818 140.211C69.1325 141.332 68.1421 141.496 67.4227 141.836C64.2586 143.33 61.0584 144.752 57.8699 146.204C50.474 149.57 43.4885 153.691 36.5092 157.834C35.344 158.531 34.4308 159.698 32.6807 159.329Z" fill="black" fill-opacity="0.75"/>
<path id="Vector_9" d="M27.9772 162.904C28.7311 159.245 34.6181 151.907 40.4266 147.192C40.2019 148.476 39.7114 149.223 38.373 150.686C36.1074 153.161 33.8471 155.645 31.6586 158.188C30.8623 159.112 30.279 160.22 29.3949 161.546C33.4504 161.563 36.938 160.39 40.5636 159.489C40.536 159.962 40.5868 160.322 40.5061 160.356C36.5701 162.045 32.4185 162.698 27.9772 162.904Z" fill="black" fill-opacity="0.75"/>
<path id="Vector_10" d="M165.882 104.291C170.553 99.9756 175.119 95.5084 181.538 93.7967C181.64 93.9196 181.75 94.0444 181.852 94.1672C181.616 94.454 181.434 94.8981 181.128 94.9992C175.804 96.8374 171.777 100.618 167.488 104.01C167.105 104.313 166.637 104.513 166.209 104.761C166.105 104.601 165.996 104.445 165.882 104.291Z" fill="black" fill-opacity="0.75"/>
<path id="Vector_11" d="M126.622 83.7783C126.063 81.6362 125.385 79.5182 124.98 77.3498C124.497 74.7748 124.228 72.1577 123.928 69.5522C123.852 68.8875 123.775 68.0598 125.046 67.8278C124.731 73.3103 126.799 78.382 127.171 83.6748C126.987 83.7053 126.807 83.7405 126.622 83.7783Z" fill="black" fill-opacity="0.75"/>
<path id="Vector_12" d="M81.4424 109.06C81.9539 108.947 82.4723 108.704 82.9711 108.742C86.8609 109.08 90.7105 109.599 94.2828 111.256C94.2551 111.404 94.2275 111.551 94.1951 111.702C89.9903 110.981 85.7827 110.255 81.5779 109.534C81.532 109.378 81.4835 109.218 81.4424 109.06Z" fill="black" fill-opacity="0.75"/>
<path id="Vector_13" d="M180.223 126.056C179.839 126.228 179.528 126.482 179.233 126.471C177.375 126.414 167.884 123.458 166.68 122.61C168.225 122.408 178.664 125.018 180.223 126.056Z" fill="black" fill-opacity="0.75"/>
<path id="Vector_14" d="M151.287 84.7364C152.979 80.7361 156.461 77.1638 159.472 76.4793C159.138 78.0082 157.474 78.0156 156.789 79.057C156.042 80.197 155.017 81.159 154.113 82.2013C153.278 83.1665 152.445 84.1242 151.61 85.0894C151.498 84.972 151.394 84.8566 151.287 84.7364Z" fill="black" fill-opacity="0.75"/>
<path id="Vector_15" d="M100.897 132.533C98.6813 135.832 96.0349 138.289 93.5575 140.886C93.4569 140.994 93.0647 140.825 92.7674 140.777C93.7895 138.669 98.7265 133.586 100.897 132.533Z" fill="black" fill-opacity="0.75"/>
<path id="Vector_16" d="M106.468 91.3375C103.481 89.3362 100.496 87.3397 97.5229 85.3181C97.4188 85.2465 97.4894 84.9234 97.4594 84.3825C101.346 85.7141 103.993 88.388 106.755 90.9017C106.662 91.0436 106.566 91.1929 106.468 91.3375Z" fill="black" fill-opacity="0.75"/>
</g>
</g>
</g>
<defs>
<clipPath id="clip0_13_25">
<rect width="229.581" height="130.31" fill="white" transform="translate(0.762695 115.767) rotate(-30)"/>
</clipPath>
</defs>
</svg>
